<?xml version="1.0" standalone="no"?>
<!DOCTYPE svg PUBLIC "-//W3C//DTD SVG 20010904//EN"
 "http://www.w3.org/TR/2001/REC-SVG-20010904/DTD/svg10.dtd">
<svg version="1.0" xmlns="http://www.w3.org/2000/svg"
 width="128.000000pt" height="128.000000pt" viewBox="0 0 128.000000 128.000000"
 preserveAspectRatio="xMidYMid meet">
<metadata>
Created by potrace 1.16, written by Peter Selinger 2001-2019
</metadata>
<g transform="translate(0.000000,128.000000) scale(0.100000,-0.100000)"
fill="#000000" stroke="none">
<path d="M0 640 l0 -640 640 0 640 0 0 640 0 640 -640 0 -640 0 0 -640z m548
378 l-3 -53 70 3 c78 4 239 34 304 57 l42 14 18 -42 c18 -42 18 -42 -3 -53
-39 -21 -190 -55 -296 -66 -145 -14 -134 -7 -126 -85 4 -37 8 -69 10 -70 2 -2
29 3 62 12 32 8 82 15 110 15 52 0 52 0 61 37 9 37 9 38 53 34 25 -1 46 -4 47
-4 1 -1 -2 -22 -7 -47 -6 -34 -5 -47 5 -53 68 -38 125 -130 125 -203 0 -22 -7
-65 -16 -95 -18 -60 -70 -159 -85 -159 -5 0 -22 12 -39 28 l-30 27 35 69 c45
89 48 159 9 205 -14 17 -29 31 -34 31 -4 0 -18 -25 -31 -56 -12 -31 -46 -90
-76 -131 -54 -76 -55 -81 -19 -121 l20 -23 -35 -35 -36 -36 -32 40 -31 40 -50
-19 c-101 -38 -200 -18 -247 51 -65 94 -22 231 97 311 56 38 53 20 35 167 l-7
52 -56 0 c-32 0 -74 3 -95 7 -37 6 -38 6 -35 47 l3 41 93 3 92 3 0 54 0 55 51
0 51 0 -4 -52z"/>
<path d="M715 654 c-136 -27 -128 -23 -122 -57 3 -18 15 -59 28 -91 l22 -60
24 30 c31 37 94 164 87 176 -3 4 -8 7 -12 7 -4 -1 -16 -3 -27 -5z"/>
<path d="M450 544 c-89 -75 -78 -189 18 -189 20 0 51 6 69 14 l31 13 -27 66
c-15 37 -31 79 -35 95 -8 34 -16 34 -56 1z"/>
</g>
</svg>
